# xmcd
#
# Track frame offsets:
#	150
#	9927
#	20215
#	30582
#	43139
#	53725
#	65295
#	77550
#	87505
#	99204
#	109917
#	120562
#	131775
#	142020
#
# Disc length: 2035 seconds
#
# Revision: 1
# Processed by: cddbd v1.5.2PL0 Copyright (c) Steve Scherf et al.
# Submitted via: audiograbber 1.83.01
#
DISCID=b707f10e
DTITLE=George Jones - 14 Top Country Favorites
DYEAR=1957
DGENRE=Country
TTITLE0=Too Much Water
TTITLE1=Don't Stop The Music
TTITLE2=Why, Baby, Why
TTITLE3=You Never Thought
TTITLE4=No Money In This Deal
TTITLE5=Just One More
TTITLE6=Take The Devil Out Of Me
TTITLE7=All I Want To Do
TTITLE8=Yearning (with Jeanette Hicks)
TTITLE9=Ragged But Right
TTITLE10=You Gotta Be My Baby
TTITLE11=Gonna Come Get You
TTITLE12=Uh Uh No
TTITLE13=Cup Of Loneliness
EXTD=
EXTT0=
EXTT1=
EXTT2=
EXTT3=
EXTT4=
EXTT5=
EXTT6=
EXTT7=
EXTT8=
EXTT9=
EXTT10=
EXTT11=
EXTT12=
EXTT13=
PLAYORDER=
